:FULLY-SPECIFIED
:FORCE-ALL-JOINTS-BE-3DOF
:DEGREES
437
root 10.441 17.1973 25.3703 6.12159 -0.22909 -1.52351
lfemur -27.9304 2.23107 -22.6176
ltibia 25.7954 -0 0
lfoot -10.8353 6.78625 0.0550792
ltoes -5.05371 0 0
rfemur -4.89071 1.84302 22.2242
rtibia 41.2587 -0 0
rfoot -7.31676 -2.52572 0.117299
rtoes -18.026 0 0
lowerback -6.80017 0.538427 -0.354984
upperback -1.23449 0.665199 2.17758
thorax 2.59161 0.330421 2.59941
lowerneck -20.388 -4.87066 -12.3707
upperneck 23.307 -6.00841 11.5582
head 11.7711 -2.39686 5.45656
lclavicle -4.37388e-14 2.78299e-15 0
lhumerus -36.448 -11.1624 92.2248
lradius 22.8037 -0 0
lwrist -0.677535 0 0
lhand -9.39199 -22.4806 0.0231888
lfingers 7.12502 -0 0
lthumb 16.5681 6.8181 0.0186721
rclavicle -4.37388e-14 2.78299e-15 0
rhumerus -39.8659 11.8553 -87.8525
rradius 35.6295 -0 0
rwrist -14.0049 0 0
rhand -29.9979 -28.9393 0.0174493
rfingers 7.12502 -0 0
rthumb -3.31538 -58.8926 0.016817
438
root 10.4641 17.215 25.5146 6.06564 -0.172587 -1.27862
lfemur -27.3487 2.30863 -23.0057
ltibia 25.8364 -0 0
lfoot -10.9608 6.65722 0.0533839
ltoes -4.71815 0 0
rfemur -5.85308 1.60386 21.8606
rtibia 42.8456 -0 0
rfoot -7.41044 -2.89393 0.113685
rtoes -18.1182 0 0
lowerback -6.71535 0.428626 -0.515795
upperback -1.2544 0.533371 2.12287
thorax 2.5263 0.26406 2.61728
lowerneck -20.4306 -4.8176 -12.3359
upperneck 23.3724 -5.92721 11.4974
head 11.7885 -2.36372 5.44286
lclavicle -4.37388e-14 2.78299e-15 0
lhumerus -35.7551 -11.2237 92.0745
lradius 22.6611 -0 0
lwrist -0.937786 0 0
lhand -9.5071 -22.5398 0.0224751
lfingers 7.12502 -0 0
lthumb 16.4573 6.76858 0.0180975
rclavicle -4.37388e-14 2.78299e-15 0
rhumerus -40.2246 11.7773 -87.886
rradius 35.5427 -0 0
rwrist -13.9147 0 0
rhand -30.0253 -29.1265 0.0169122
rfingers 7.12502 -0 0
rthumb -3.34184 -59.0794 0.0162994
439
root 10.4873 17.2327 25.659 6.00993 -0.115845 -1.03378
lfemur -26.7674 2.39013 -23.393
ltibia 25.8774 -0 0
lfoot -11.0862 6.52819 0.0514061
ltoes -4.3826 0 0
rfemur -6.81382 1.35863 21.5011
rtibia 44.4324 -0 0
rfoot -7.5041 -3.26213 0.109469
rtoes -18.2104 0 0
lowerback -6.63022 0.319064 -0.676767
upperback -1.27419 0.401523 2.0682
thorax 2.46096 0.19772 2.63523
lowerneck -20.4731 -4.76452 -12.3011
upperneck 23.4376 -5.84594 11.4367
head 11.8059 -2.33058 5.42917
lclavicle -4.37388e-14 2.78299e-15 0
lhumerus -35.0619 -11.2831 91.9234
lradius 22.5186 -0 0
lwrist -1.19804 0 0
lhand -9.62222 -22.599 0.0216426
lfingers 7.12502 -0 0
lthumb 16.3465 6.71906 0.0174271
rclavicle -4.37388e-14 2.78299e-15 0
rhumerus -40.5831 11.6991 -87.919
rradius 35.4559 -0 0
rwrist -13.8246 0 0
rhand -30.0527 -29.3136 0.0162856
rfingers 7.12502 -0 0
rthumb -3.3683 -59.2662 0.0156955
440
root 10.5104 17.2503 25.8033 5.95446 -0.0588663 -0.788993
lfemur -26.1867 2.47554 -23.7794
ltibia 25.9184 -0 0
lfoot -11.2117 6.39917 0.0491459
ltoes -4.04704 0 0
rfemur -7.77291 1.10741 21.1459
rtibia 46.0193 -0 0
rfoot -7.59773 -3.63033 0.104651
rtoes -18.3026 0 0
lowerback -6.54478 0.209741 -0.837901
upperback -1.29385 0.269656 2.01358
thorax 2.3956 0.131401 2.65326
lowerneck -20.5156 -4.71142 -12.2664
upperneck 23.5027 -5.76461 11.3761
head 11.8233 -2.29743 5.41548
lclavicle -4.37388e-14 2.78299e-15 0
lhumerus -34.3685 -11.3408 91.7716
lradius 22.376 -0 0
lwrist -1.45829 0 0
lhand -9.73733 -22.6582 0.0206911
lfingers 7.12502 -0 0
lthumb 16.2357 6.66954 0.016661
rclavicle -4.37388e-14 2.78299e-15 0
rhumerus -40.9414 11.6207 -87.9515
rradius 35.3691 -0 0
rwrist -13.7345 0 0
rhand -30.08 -29.5008 0.0155696
rfingers 7.12502 -0 0
rthumb -3.39476 -59.453 0.0150054
441
root 10.5336 17.268 25.9476 5.89924 -0.00165091 -0.544264
lfemur -25.6065 2.56487 -24.165
ltibia 25.9594 -0 0
lfoot -11.3371 6.27015 0.0466031
ltoes -3.71149 0 0
rfemur -8.73035 0.850288 20.7949
rtibia 47.6062 -0 0
rfoot -7.69133 -3.99852 0.0992315
rtoes -18.3947 0 0
lowerback -6.45904 0.100659 -0.999195
upperback -1.31338 0.137771 1.959
thorax 2.33022 0.0651019 2.67136
lowerneck -20.5581 -4.65829 -12.2318
upperneck 23.5678 -5.68321 11.3156
head 11.8406 -2.26428 5.40181
lclavicle -4.37388e-14 2.78299e-15 0
lhumerus -33.6747 -11.3966 91.619
lradius 22.2334 -0 0
lwrist -1.71854 0 0
lhand -9.85245 -22.7173 0.0196208
lfingers 7.12502 -0 0
lthumb 16.1249 6.62002 0.0157991
rclavicle -4.37388e-14 2.78299e-15 0
rhumerus -41.2996 11.5421 -87.9834
rradius 35.2823 -0 0
rwrist -13.6443 0 0
rhand -30.1074 -29.688 0.014764
rfingers 7.12502 -0 0
rthumb -3.42121 -59.6398 0.014229
442
root 10.5567 17.2857 26.092 5.84427 0.0557998 -0.29959
lfemur -25.0269 2.65809 -24.5498
ltibia 26.0004 -0 0
lfoot -11.4625 6.14113 0.043778
ltoes -3.37594 0 0
rfemur -9.68614 0.587343 20.4483
rtibia 49.1931 -0 0
rfoot -7.78489 -4.36669 0.0932107
rtoes -18.4869 0 0
lowerback -6.37299 -0.00818099 -1.16065
upperback -1.33278 0.00586751 1.90447
thorax 2.26482 -0.00117636 2.68954
lowerneck -20.6006 -4.60513 -12.1972
upperneck 23.6327 -5.60174 11.2552
head 11.858 -2.23113 5.38815
lclavicle -4.37388e-14 2.78299e-15 0
lhumerus -32.9807 -11.4507 91.4657
lradius 22.0908 -0 0
lwrist -1.97879 0 0
lhand -9.96756 -22.7765 0.0184315
lfingers 7.12502 -0 0
lthumb 16.0142 6.57051 0.0148415
rclavicle -4.37388e-14 2.78299e-15 0
rhumerus -41.6577 11.4633 -88.0148
rradius 35.1955 -0 0
rwrist -13.5542 0 0
rhand -30.1348 -29.8751 0.0138689
rfingers 7.12502 -0 0
rthumb -3.44766 -59.8265 0.0133664
443
root 10.5799 17.3033 26.2363 5.78954 0.113485 -0.0549707
lfemur -24.4479 2.75518 -24.9336
ltibia 26.0414 -0 0
lfoot -11.5879 6.01213 0.0406704
ltoes -3.04038 0 0
rfemur -10.6403 0.318659 20.1061
rtibia 50.7799 -0 0
rfoot -7.87841 -4.73486 0.0865887
rtoes -18.5791 0 0
lowerback -6.28664 -0.116778 -1.32228
upperback -1.35206 -0.126055 1.84999
thorax 2.1994 -0.0674337 2.7078
lowerneck -20.643 -4.55195 -12.1626
upperneck 23.6976 -5.5202 11.1949
head 11.8754 -2.19797 5.3745
lclavicle -4.37388e-14 2.78299e-15 0
lhumerus -32.2863 -11.5029 91.3118
lradius 21.9483 -0 0
lwrist -2.23904 0 0
lhand -10.0827 -22.8357 0.0171233
lfingers 7.12502 -0 0
lthumb 15.9034 6.52099 0.0137881
rclavicle -4.37388e-14 2.78299e-15 0
rhumerus -42.0156 11.3843 -88.0458
rradius 35.1087 -0 0
rwrist -13.4641 0 0
rhand -30.1622 -30.0623 0.0128844
rfingers 7.12502 -0 0
rthumb -3.47411 -60.0133 0.0124176
444
root 10.603 17.321 26.3806 5.73505 0.171403 0.189594
lfemur -23.8695 2.85615 -25.3164
ltibia 26.0824 -0 0
lfoot -11.7133 5.88313 0.0372805
ltoes -2.70483 0 0
rfemur -11.5928 0.0443184 19.7685
rtibia 52.3668 -0 0
rfoot -7.97188 -5.10302 0.079366
rtoes -18.6712 0 0
lowerback -6.19997 -0.225131 -1.48406
upperback -1.37122 -0.257995 1.79554
thorax 2.13396 -0.13367 2.72612
lowerneck -20.6853 -4.49874 -12.1281
upperneck 23.7623 -5.4386 11.1347
head 11.8927 -2.16481 5.36086
lclavicle -4.37388e-14 2.78299e-15 0
lhumerus -31.5917 -11.5532 91.1571
lradius 21.8057 -0 0
lwrist -2.49929 0 0
lhand -10.1978 -22.8949 0.0156962
lfingers 7.12502 -0 0
lthumb 15.7926 6.47148 0.012639
rclavicle -4.37388e-14 2.78299e-15 0
rhumerus -42.3734 11.3052 -88.0762
rradius 35.0219 -0 0
rwrist -13.3739 0 0
rhand -30.1896 -30.2495 0.0118105
rfingers 7.12502 -0 0
rthumb -3.50056 -60.2001 0.0113825
445
root 10.6262 17.3387 26.525 5.68082 0.229553 0.434104
lfemur -23.2918 2.96097 -25.6982
ltibia 26.1234 -0 0
lfoot -11.8387 5.75414 0.0336082
ltoes -2.36928 0 0
rfemur -12.5437 -0.235592 19.4355
rtibia 53.9537 -0 0
rfoot -8.06531 -5.47116 0.0715428
rtoes -18.7634 0 0
lowerback -6.113 -0.333238 -1.64601
upperback -1.39025 -0.389954 1.74115
thorax 2.0685 -0.199886 2.74453
lowerneck -20.7277 -4.4455 -12.0936
upperneck 23.827 -5.35692 11.0746
head 11.9101 -2.13165 5.34723
lclavicle -4.37388e-14 2.78299e-15 0
lhumerus -30.8969 -11.6018 91.0019
lradius 21.6631 -0 0
lwrist -2.75954 0 0
lhand -10.3129 -22.9541 0.0141502
lfingers 7.12502 -0 0
lthumb 15.6818 6.42197 0.0113941
rclavicle -4.37388e-14 2.78299e-15 0
rhumerus -42.7311 11.2258 -88.1061
rradius 34.9351 -0 0
rwrist -13.2838 0 0
rhand -30.217 -30.4366 0.0106471
rfingers 7.12502 -0 0
rthumb -3.527 -60.3869 0.0102613
